<?xml version="1.0" encoding="iso-8859-1"?>
<!-- Uploaded to: SVG Repo, www.svgrepo.com, Generator: SVG Repo Mixer Tools -->
<!DOCTYPE svg PUBLIC "-//W3C//DTD SVG 1.1//EN" "http://www.w3.org/Graphics/SVG/1.1/DTD/svg11.dtd">
<svg fill="#808080" version="1.1" id="Capa_1" xmlns="http://www.w3.org/2000/svg" xmlns:xlink="http://www.w3.org/1999/xlink" 
	 width="800px" height="800px" viewBox="0 0 99.277 99.277"
	 xml:space="preserve">
<g>
	<g>
		<path d="M72.404,37.824h-45.58c-2.938,0-5.315,2.223-5.315,5.163v35.566c0,2.949,2.377,5.451,5.315,5.451h18.83v5.889h-6.992
			c-2.675,0-4.978,2.171-4.978,4.84v3.137H65.59v-3.137c0-2.668-2.053-4.84-4.721-4.84h-7.243v-5.889h18.776
			c2.939,0,5.369-2.502,5.369-5.451V42.987C77.771,40.047,75.344,37.824,72.404,37.824z M69.788,76.03H29.406V45.801h40.382V76.03z"
			/>
		<path d="M79.396,16.604c-0.7-0.058-1.344-0.417-1.762-0.982C73.59,10.141,67.092,6.76,60.176,6.76
			c-0.441,0-0.885,0.014-1.324,0.041c-0.582,0.036-1.154-0.138-1.619-0.489c-4.207-3.181-9.309-4.905-14.65-4.905
			c-9.566,0-18.056,5.549-22.012,13.95c-0.352,0.746-1.057,1.264-1.874,1.377C8.148,18.197,0,27.274,0,38.216
			C0,48.649,7.406,57.38,17.235,59.44v-8.875c-5.059-1.83-8.69-6.667-8.69-12.35c0-7.247,5.896-13.143,13.143-13.143
			c0.366,0,0.727,0.029,1.085,0.058c2.088,0.162,3.979-1.193,4.488-3.219c1.766-7.042,8.067-11.962,15.32-11.962
			c4.144,0,8.065,1.601,11.044,4.507c1.018,0.992,2.461,1.415,3.854,1.125c0.888-0.185,1.795-0.279,2.695-0.279
			c5.075,0,9.605,2.853,11.826,7.444c0.78,1.615,2.484,2.575,4.271,2.392c0.443-0.044,0.889-0.067,1.317-0.067
			c7.247,0,13.144,5.896,13.144,13.143c0,5.682-3.631,10.519-8.689,12.35v8.874c9.83-2.061,17.234-10.792,17.234-21.224
			C99.279,26.867,90.514,17.525,79.396,16.604z"/>
	</g>
</g>
</svg>